<svg id="e0070f4adceee3ac92c8eb8b95ad84a7" xmlns="http://www.w3.org/2000/svg" width="21.854" height="20.537" viewBox="0 0 21.854 20.537">
  <g id="noun_schedule_1491211" transform="translate(0 0)">
    <g id="Group" transform="translate(0 0)">
      <path id="Path" d="M35.793,34.3h-.886a.506.506,0,1,0,0,1.013h.886a.506.506,0,1,0,0-1.013Z" transform="translate(-27.411 -27.995)" fill="#fff"/>
      <path id="Path-2" data-name="Path" d="M21.793,34.3h-.886a.506.506,0,1,0,0,1.013h.886a.506.506,0,1,0,0-1.013Z" transform="translate(-16.956 -27.995)" fill="#fff"/>
      <path id="Path-3" data-name="Path" d="M48.906,35.313h.886a.506.506,0,1,0,0-1.013h-.886a.506.506,0,1,0,0,1.013Z" transform="translate(-37.866 -27.995)" fill="#fff"/>
      <path id="Path-4" data-name="Path" d="M62.906,35.313h.886a.506.506,0,1,0,0-1.013h-.886a.506.506,0,1,0,0,1.013Z" transform="translate(-48.32 -27.995)" fill="#fff"/>
      <path id="Path-5" data-name="Path" d="M35.793,46h-.886a.506.506,0,0,0,0,1.013h.886a.506.506,0,0,0,0-1.013Z" transform="translate(-27.411 -36.732)" fill="#fff"/>
      <path id="Path-6" data-name="Path" d="M21.793,46h-.886a.506.506,0,1,0,0,1.013h.886a.506.506,0,0,0,0-1.013Z" transform="translate(-16.956 -36.732)" fill="#fff"/>
      <path id="Path-7" data-name="Path" d="M35.793,57.6h-.886a.506.506,0,0,0,0,1.013h.886a.506.506,0,0,0,0-1.013Z" transform="translate(-27.411 -45.394)" fill="#fff"/>
      <path id="Path-8" data-name="Path" d="M21.793,57.6h-.886a.506.506,0,0,0,0,1.013h.886a.506.506,0,0,0,0-1.013Z" transform="translate(-16.956 -45.394)" fill="#fff"/>
      <path id="Compound_Path" data-name="Compound Path" d="M26.223,18.921v-5.47a2.532,2.532,0,0,0-2.532-2.532h-.177V9.906a.506.506,0,1,0-1.013,0v.988H20.272V9.906a.506.506,0,1,0-1.013,0v.988H17.03V9.906a.506.506,0,1,0-1.013,0v.988H13.764V9.906a.506.506,0,1,0-1.013,0v.988H10.522V9.906a.506.506,0,1,0-1.013,0v.988H9.332A2.532,2.532,0,0,0,6.8,13.426v10.23a2.532,2.532,0,0,0,2.532,2.532h7.546a6.128,6.128,0,1,0,9.344-7.268ZM9.332,25.176a1.519,1.519,0,0,1-1.519-1.519V13.452a1.519,1.519,0,0,1,1.519-1.519H9.51v.734a.506.506,0,0,0,1.013,0v-.734h2.228v.734a.506.506,0,0,0,1.013,0v-.734h2.228v.734a.506.506,0,0,0,1.013,0v-.734h2.254v.734a.506.506,0,0,0,1.013,0v-.734H22.5v.734a.506.506,0,0,0,1.013,0v-.734h.177a1.519,1.519,0,0,1,1.519,1.519v4.837a6.128,6.128,0,0,0-6.179.481.506.506,0,0,0-.3-.1h-.886a.506.506,0,1,0,0,1.013h.152a6.128,6.128,0,0,0-1.469,5.5Zm13.193,3.773a5.115,5.115,0,1,1,5.141-5.141A5.115,5.115,0,0,1,22.526,28.949Z" transform="translate(-6.8 -9.4)" fill="#fff"/>
      <path id="Path-9" data-name="Path" d="M68.661,56.915H66.813V54.306a.506.506,0,0,0-1.013,0v3.115a.506.506,0,0,0,.506.506h2.38a.506.506,0,1,0,0-1.013Z" transform="translate(-50.859 -42.557)" fill="#fff"/>
    </g>
  </g>
</svg>