<svg id="icone_galeria" xmlns="http://www.w3.org/2000/svg" width="12" height="12" viewBox="0 0 12 12">
  <path id="Caminho_442" data-name="Caminho 442" d="M14.586,5.5H7.826A2.326,2.326,0,0,0,5.5,7.826v6.76a2.326,2.326,0,0,0,2.326,2.326h6.76a2.326,2.326,0,0,0,2.326-2.326V7.826A2.326,2.326,0,0,0,14.586,5.5Zm1.782,9.086a1.782,1.782,0,0,1-1.782,1.782H9.309A7.347,7.347,0,0,1,16.374,9.3Zm0-5.809a7.869,7.869,0,0,0-7.608,7.608H7.826a1.782,1.782,0,0,1-1.782-1.8V7.826A1.782,1.782,0,0,1,7.826,6.043h6.76a1.782,1.782,0,0,1,1.782,1.782Z" transform="translate(-5.5 -5.5)" fill="#fff"/>
  <path id="Caminho_443" data-name="Caminho 443" d="M10.085,8.5a1.585,1.585,0,1,0,1.585,1.585A1.585,1.585,0,0,0,10.085,8.5Zm0,2.536a.951.951,0,1,1,.951-.951A.951.951,0,0,1,10.085,11.036Z" transform="translate(-6.725 -6.725)" fill="#fff"/>
</svg>
