<svg xmlns="http://www.w3.org/2000/svg" xmlns:xlink="http://www.w3.org/1999/xlink" width="34.136" height="37.245" viewBox="0 0 34.136 37.245">
  <defs>
    <linearGradient id="linear-gradient" y1="0.5" x2="1" y2="0.5" gradientUnits="objectBoundingBox">
      <stop offset="0" stop-color="#ff1e00"/>
      <stop offset="0.098" stop-color="#ff3101"/>
      <stop offset="0.247" stop-color="#ff4802"/>
      <stop offset="0.408" stop-color="#ff5804"/>
      <stop offset="0.589" stop-color="#ff6104"/>
      <stop offset="0.828" stop-color="#ff6505"/>
    </linearGradient>
  </defs>
  <g id="Grupo_1919" data-name="Grupo 1919" transform="translate(-2691.75 37.775)">
    <path id="Caminho_2475" data-name="Caminho 2475" d="M2713.677-7.842c-3.586,1.081-.564,3.412-2.424,5.906a3.511,3.511,0,0,1-6.321-2.053,21.955,21.955,0,0,1,.575-2.514,1.532,1.532,0,0,0-3.009-.567,3.885,3.885,0,0,0-.023,1.294,2.182,2.182,0,0,1-2.133,2.639,2.181,2.181,0,0,1-2.181-2.216c-.075-3.315,4.766-.974,3.766-5.6a2.894,2.894,0,0,1,2.787-3.506,2.79,2.79,0,0,1,2.66,3.636,2.774,2.774,0,0,0,.033,2.2,1.688,1.688,0,0,0,2.656.387c.774-.777.434-1.912.51-2.631.372-3.52,5.618-3.279,5.618.249A2.791,2.791,0,0,1,2713.677-7.842Zm10.418-4.735a3.5,3.5,0,0,0-5.551,3.356c.372,2.334-.453,3.111-2.206,3.447a2.267,2.267,0,0,0,.3,4.512,2.266,2.266,0,0,0,2.265-2.319c.288-3.853,2.774-1.876,4.945-3.247A3.476,3.476,0,0,0,2724.094-12.577Zm-25.9-3.05a14.07,14.07,0,0,1-1.831-1.145,1.6,1.6,0,0,1,2.1-2.411,5.019,5.019,0,0,1,.672.706,2.785,2.785,0,0,0,2.206,1.047,2.785,2.785,0,0,0,2.764-2.79c0-2.848-2.8-2.309-3.357-4.067a1.792,1.792,0,0,1,2.642-2.047,4.371,4.371,0,0,1,.913.782h0a2.8,2.8,0,0,0,4.844-1.89,2.793,2.793,0,0,0-4.515-2.194c.019-.275-1.592,2.07-3.709-.183a3.515,3.515,0,0,0-6.565,1.689c0,2.987,2.386,3.13,3.718,4.077a1.455,1.455,0,0,1-1.635,2.4,4.155,4.155,0,0,1-.749-.656h0c-2.194-2.372-5.887,1.336-2.676,3.715l-.079-.045c1.146.848,1.651,1.9.339,3.824a3.51,3.51,0,0,0,4.156,5.276A3.466,3.466,0,0,0,2698.192-15.628Zm21.979-10.64a2.857,2.857,0,0,0,2.858,2.858,2.858,2.858,0,0,0,2.858-2.858,2.858,2.858,0,0,0-2.858-2.858A2.857,2.857,0,0,0,2720.171-26.268Zm-16.819-6.182a2.156,2.156,0,0,0,1.393-.478c3.9-3.034,3.886,3.845,8.353,1.8,1.619-.739,2.242-1.662,3.178-1.484a1.413,1.413,0,0,1,.9,2.127,3.078,3.078,0,0,1-2.4,1.242h0a2.792,2.792,0,0,0,.4,5.553,2.791,2.791,0,0,0,2.791-2.791c0-1.113-1.156-3.525,2.165-4.245a2.268,2.268,0,0,0-.453-4.487c-1.5,0-2.615,1.737-4.173.143l-.328-.377h0c-.294-.415-.482-.678-.444-.617a3.505,3.505,0,0,0-5.559-.619c.016-.378-1.656,2.821-4.25.33a2.262,2.262,0,0,0-1.469-.63,2.256,2.256,0,0,0-2.361,2.087A2.267,2.267,0,0,0,2703.352-32.45Z" transform="translate(0)" fill="url(#linear-gradient)"/>
  </g>
</svg>
