<svg xmlns="http://www.w3.org/2000/svg" xmlns:xlink="http://www.w3.org/1999/xlink" width="128.644" height="71.361" viewBox="0 0 128.644 71.361">
  <defs>
    <linearGradient id="linear-gradient" y1="0.5" x2="1" y2="0.5" gradientUnits="objectBoundingBox">
      <stop offset="0" stop-color="#ff1e00"/>
      <stop offset="0.098" stop-color="#ff3101"/>
      <stop offset="0.247" stop-color="#ff4802"/>
      <stop offset="0.408" stop-color="#ff5804"/>
      <stop offset="0.589" stop-color="#ff6104"/>
      <stop offset="0.828" stop-color="#ff6505"/>
    </linearGradient>
  </defs>
  <g id="Grupo_1928" data-name="Grupo 1928" transform="translate(-2691.75 37.774)">
    <g id="Grupo_1920" data-name="Grupo 1920" transform="translate(2719.513 -9.371)">
      <path id="Caminho_2476" data-name="Caminho 2476" d="M2925.426,193.54a6.484,6.484,0,0,0-1.89-1.142,5.817,5.817,0,0,0-2.094-.381,4.62,4.62,0,0,0-3.457,1.363,5.308,5.308,0,0,0-.035,6.994,4.323,4.323,0,0,0,3.271,1.363,5.959,5.959,0,0,0,2.191-.407,6.945,6.945,0,0,0,2-1.231v2.381a6.218,6.218,0,0,1-1.85.912,7.987,7.987,0,0,1-4.918-.186,6.468,6.468,0,0,1-3.673-3.625,7.322,7.322,0,0,1,0-5.365,6.637,6.637,0,0,1,3.687-3.647,7.3,7.3,0,0,1,2.7-.491,7.1,7.1,0,0,1,2.178.332,7.634,7.634,0,0,1,2.009,1Z" transform="translate(-2914.458 -190.079)" fill="#fff"/>
      <path id="Caminho_2477" data-name="Caminho 2477" d="M3024.417,231.361a4.374,4.374,0,0,1,.35-1.74,4.45,4.45,0,0,1,1-1.456,4.519,4.519,0,0,1,1.486-.965,4.84,4.84,0,0,1,3.546,0,4.529,4.529,0,0,1,1.5.991,4.447,4.447,0,0,1,1.009,1.461,4.328,4.328,0,0,1,.345,1.709,4.474,4.474,0,0,1-.341,1.744,4.261,4.261,0,0,1-1,1.443,4.8,4.8,0,0,1-1.531,1,4.673,4.673,0,0,1-1.771.341,4.624,4.624,0,0,1-1.753-.341,4.665,4.665,0,0,1-2.505-2.457A4.4,4.4,0,0,1,3024.417,231.361Zm7.215.018a2.8,2.8,0,0,0-.752-1.979,2.493,2.493,0,0,0-3.678,0,2.964,2.964,0,0,0,0,3.957,2.488,2.488,0,0,0,3.674,0A2.79,2.79,0,0,0,3031.632,231.379Z" transform="translate(-3010.71 -222.278)" fill="#fff"/>
      <path id="Caminho_2478" data-name="Caminho 2478" d="M3122.161,235.549v-8.392h1.806v1.372a3.62,3.62,0,0,1,1.354-1.266,4.121,4.121,0,0,1,1.894-.4,3.884,3.884,0,0,1,1.6.3,2.319,2.319,0,0,1,1.031.881,2.407,2.407,0,0,1,.319.806,9.024,9.024,0,0,1,.1,1.611v5.09h-1.939v-4.311a4.056,4.056,0,0,0-.4-2.2,1.67,1.67,0,0,0-1.43-.544,2.787,2.787,0,0,0-1.2.248,1.985,1.985,0,0,0-.828.7,1.906,1.906,0,0,0-.3.774,9.522,9.522,0,0,0-.084,1.509v3.824Z" transform="translate(-3096.269 -222.278)" fill="#fff"/>
      <path id="Caminho_2479" data-name="Caminho 2479" d="M3214.934,235.549v-8.392h1.806v1.372a3.621,3.621,0,0,1,1.354-1.266,4.123,4.123,0,0,1,1.895-.4,3.883,3.883,0,0,1,1.6.3,2.318,2.318,0,0,1,1.031.881,2.4,2.4,0,0,1,.319.806,8.977,8.977,0,0,1,.1,1.611v5.09H3221.1v-4.311a4.053,4.053,0,0,0-.4-2.2,1.669,1.669,0,0,0-1.429-.544,2.786,2.786,0,0,0-1.2.248,1.984,1.984,0,0,0-.828.7,1.906,1.906,0,0,0-.3.774,9.62,9.62,0,0,0-.084,1.509v3.824Z" transform="translate(-3177.477 -222.278)" fill="#fff"/>
      <path id="Caminho_2480" data-name="Caminho 2480" d="M3311.439,231.636h-6.71a2.807,2.807,0,0,0,.7,1.837,2.2,2.2,0,0,0,1.673.659,2.859,2.859,0,0,0,1.549-.389,3.21,3.21,0,0,0,1.08-1.257l1.62.9a4.9,4.9,0,0,1-1.752,1.886,4.719,4.719,0,0,1-2.453.62,4.273,4.273,0,0,1-3.213-1.231,4.512,4.512,0,0,1-1.195-3.284,4.464,4.464,0,0,1,1.234-3.245,4.737,4.737,0,0,1,6.334-.111,4.453,4.453,0,0,1,1.133,3.249Zm-1.991-1.292a2.034,2.034,0,0,0-.69-1.377,2.411,2.411,0,0,0-1.576-.474,2.366,2.366,0,0,0-1.523.46,2.472,2.472,0,0,0-.806,1.39Z" transform="translate(-3254.335 -222.278)" fill="#fff"/>
      <path id="Caminho_2481" data-name="Caminho 2481" d="M3397.782,229.546a3.008,3.008,0,0,0-1.031-.744,3.145,3.145,0,0,0-1.27-.257,2.452,2.452,0,0,0-1.885.761,3.279,3.279,0,0,0,0,4.077,2.59,2.59,0,0,0,1.97.748,2.871,2.871,0,0,0,1.248-.261,2.7,2.7,0,0,0,.965-.792v2.213a4.494,4.494,0,0,1-1.138.452,5.337,5.337,0,0,1-1.288.15,4.33,4.33,0,0,1-3.218-1.257,4.434,4.434,0,0,1-1.244-3.258,4.34,4.34,0,0,1,1.288-3.271,4.645,4.645,0,0,1,3.368-1.244,5.291,5.291,0,0,1,1.2.128,3.967,3.967,0,0,1,1.027.394Z" transform="translate(-3331.502 -222.278)" fill="#fff"/>
      <path id="Caminho_2482" data-name="Caminho 2482" d="M3462.483,215.284v-6.71h-1.469v-1.682h1.469v-3.178h1.921v3.178h1.47v1.682h-1.47v6.71Z" transform="translate(-3392.881 -202.014)" fill="#fff"/>
      <path id="Caminho_2483" data-name="Caminho 2483" d="M3519.2,191.7a1.143,1.143,0,0,1,.359-.841,1.174,1.174,0,0,1,.854-.354,1.165,1.165,0,0,1,1.2,1.2,1.182,1.182,0,0,1-.345.863,1.148,1.148,0,0,1-.85.35,1.224,1.224,0,0,1-1.213-1.213Zm.257,12.022V195.33h1.921v8.392Z" transform="translate(-3443.816 -190.452)" fill="#fff"/>
      <path id="Caminho_2484" data-name="Caminho 2484" d="M3560.989,231.361a4.387,4.387,0,0,1,.35-1.74,4.467,4.467,0,0,1,1.005-1.456,4.519,4.519,0,0,1,1.487-.965,4.839,4.839,0,0,1,3.546,0,4.534,4.534,0,0,1,1.5.991,4.455,4.455,0,0,1,1.009,1.461,4.337,4.337,0,0,1,.345,1.709,4.469,4.469,0,0,1-.341,1.744,4.26,4.26,0,0,1-1,1.443,4.8,4.8,0,0,1-1.531,1,4.672,4.672,0,0,1-1.771.341,4.626,4.626,0,0,1-1.753-.341,4.665,4.665,0,0,1-2.505-2.457A4.4,4.4,0,0,1,3560.989,231.361Zm7.215.018a2.8,2.8,0,0,0-.752-1.979,2.493,2.493,0,0,0-3.678,0,2.963,2.963,0,0,0,0,3.957,2.487,2.487,0,0,0,3.673,0A2.792,2.792,0,0,0,3568.2,231.379Z" transform="translate(-3480.393 -222.278)" fill="#fff"/>
      <path id="Caminho_2485" data-name="Caminho 2485" d="M3658.734,235.549v-8.392h1.806v1.372a3.614,3.614,0,0,1,1.354-1.266,4.122,4.122,0,0,1,1.895-.4,3.882,3.882,0,0,1,1.6.3,2.321,2.321,0,0,1,1.032.881,2.412,2.412,0,0,1,.318.806,8.97,8.97,0,0,1,.1,1.611v5.09H3664.9v-4.311a4.056,4.056,0,0,0-.4-2.2,1.67,1.67,0,0,0-1.43-.544,2.789,2.789,0,0,0-1.2.248,1.986,1.986,0,0,0-.827.7,1.906,1.906,0,0,0-.3.774,9.552,9.552,0,0,0-.084,1.509v3.824Z" transform="translate(-3565.953 -222.278)" fill="#fff"/>
    </g>
    <path id="Caminho_2486" data-name="Caminho 2486" d="M2733.761,19.576c-6.87,2.071-1.08,6.538-4.646,11.315-3.793,5.083-12.111,2.53-12.111-3.934,0-1.457.858-3.161,1.1-4.816.547-3.7-4.972-4.745-5.765-1.087a7.457,7.457,0,0,0-.045,2.479,4.18,4.18,0,1,1-8.267.811c-.144-6.351,9.131-1.865,7.216-10.731-.488-4.433,2.515-6.717,5.341-6.717a5.345,5.345,0,0,1,5.1,6.967,5.313,5.313,0,0,0,.064,4.213,3.233,3.233,0,0,0,5.087.741c1.483-1.49.833-3.664.978-5.041.712-6.745,10.765-6.283,10.765.477A5.348,5.348,0,0,1,2733.761,19.576Zm19.961-9.072a6.714,6.714,0,0,0-10.636,6.43c.712,4.472-.869,5.961-4.228,6.6-5.325.717-4.8,8.645.584,8.645a4.34,4.34,0,0,0,4.34-4.443c.552-7.383,5.315-3.594,9.475-6.221A6.66,6.66,0,0,0,2753.722,10.5ZM2704.093,4.66a27.028,27.028,0,0,1-3.509-2.194c-2.961-2.639.983-7.176,4.016-4.619A9.608,9.608,0,0,1,2705.887-.8a5.334,5.334,0,0,0,4.227,2.006,5.336,5.336,0,0,0,5.3-5.346c0-5.457-5.363-4.424-6.431-7.792a3.434,3.434,0,0,1,5.061-3.923,8.385,8.385,0,0,1,1.749,1.5h0a5.354,5.354,0,0,0,9.281-3.621,5.352,5.352,0,0,0-8.651-4.2c.037-.526-3.051,3.966-7.107-.35-3.118-5.757-12.579-3.836-12.579,3.236,0,5.724,4.571,6,7.123,7.811,2.931,2.084-.13,6.586-3.133,4.607a7.991,7.991,0,0,1-1.434-1.258h0c-4.2-4.545-11.281,2.56-5.128,7.118l-.151-.086c2.2,1.624,3.164,3.641.649,7.328-4,5.7,2.267,12.648,7.964,10.109A6.641,6.641,0,0,0,2704.093,4.66ZM2746.2-15.727a5.476,5.476,0,0,0,5.476,5.475,5.476,5.476,0,0,0,5.476-5.475,5.476,5.476,0,0,0-5.476-5.475A5.476,5.476,0,0,0,2746.2-15.727Zm-32.225-11.845a4.133,4.133,0,0,0,2.668-.916c7.464-5.812,7.446,7.367,16,3.456,3.1-1.417,4.3-3.185,6.09-2.843a2.707,2.707,0,0,1,1.729,4.074c-.732,1.232-2.177,2.027-4.607,2.379h0c-6.516.935-5.844,10.639.766,10.639a5.347,5.347,0,0,0,5.347-5.347c0-2.132-2.216-6.755,4.148-8.133,5.091-1.033,4.35-8.6-.869-8.6-2.869,0-5.011,3.327-8,.273l-.627-.723h0c-.562-.795-.923-1.3-.852-1.183a6.716,6.716,0,0,0-10.651-1.185c.031-.725-3.173,5.406-8.143.632a4.337,4.337,0,0,0-2.814-1.207,4.323,4.323,0,0,0-4.523,4A4.343,4.343,0,0,0,2713.979-27.572Z" transform="translate(0 0)" fill="url(#linear-gradient)"/>
  </g>
</svg>
