<svg xmlns="http://www.w3.org/2000/svg" width="9" height="12" viewBox="0 0 9 12">
  <g id="Icone_pin" transform="translate(0)">
    <path id="Caminho_445" data-name="Caminho 445" d="M-59.771,74.086a4.4,4.4,0,0,0-4.438,4.346c0,1.749,1.291,3.342,2.329,4.621l1.873,2.331a.362.362,0,0,0,.25.114h.015a.284.284,0,0,0,.208-.114c.2-.25.4-.507.6-.766.413-.528.84-1.074,1.272-1.568,1.036-1.279,2.325-2.871,2.325-4.618A4.4,4.4,0,0,0-59.771,74.086Zm3.833,4.346c0,1.54-1.215,3.041-2.191,4.247l0,0c-.351.462-.732.928-1.1,1.378-.181.221-.362.442-.539.662l-1.639-2.039c-.978-1.208-2.195-2.71-2.195-4.253a3.8,3.8,0,0,1,3.833-3.753A3.8,3.8,0,0,1-55.938,78.432Z" transform="translate(64.209 -74.086)" fill="#fff"/>
    <path id="Caminho_446" data-name="Caminho 446" d="M-58.521,77.5a2.247,2.247,0,0,0-2.273,2.215,2.247,2.247,0,0,0,2.273,2.215,2.247,2.247,0,0,0,2.273-2.215A2.247,2.247,0,0,0-58.521,77.5Zm1.66,2.215a1.641,1.641,0,0,1-1.66,1.617,1.641,1.641,0,0,1-1.661-1.617A1.642,1.642,0,0,1-58.521,78.1,1.641,1.641,0,0,1-56.861,79.716Z" transform="translate(62.959 -75.364)" fill="#fff"/>
  </g>
</svg>
