<svg id="icone_planta" xmlns="http://www.w3.org/2000/svg" width="11.412" height="12" viewBox="0 0 11.412 12">
  <path id="Caminho_444" data-name="Caminho 444" d="M-86,105.677h-1.866c-.011,0-.02,0-.031,0h-.9a.14.14,0,0,0-.016,0h-3.944A2.326,2.326,0,0,0-95.088,108v6.76a2.326,2.326,0,0,0,2.326,2.326H-86a2.326,2.326,0,0,0,2.326-2.326V108A2.326,2.326,0,0,0-86,105.677Zm1.782,9.086A1.782,1.782,0,0,1-86,116.545l-4.693.011a.86.86,0,0,0,.074-.347v-2.345a.252.252,0,0,0-.252-.252.251.251,0,0,0-.252.252v2.345a.359.359,0,0,1-.3.349l-1.34,0a1.783,1.783,0,0,1-1.782-1.782v-5.1a.872.872,0,0,0,.346.07h2.345a.269.269,0,0,0,.269-.269.269.269,0,0,0-.269-.269H-94.2a.345.345,0,0,1-.344-.345v-.88a1.781,1.781,0,0,1,1.78-1.767h4.9a.34.34,0,0,1,.306.336v3.633a.345.345,0,0,1-.344.345h-.9a.27.27,0,0,0-.27.269.27.27,0,0,0,.27.269h.9a.884.884,0,0,0,.884-.883v-3.633a.871.871,0,0,0-.067-.336H-86A1.782,1.782,0,0,1-84.22,108l.006,1.478Z" transform="translate(95.088 -105.674)" fill="#fff"/>
</svg>
