<svg id="Grupo_1" data-name="Grupo 1" xmlns="http://www.w3.org/2000/svg" width="19.757" height="19.757" viewBox="0 0 19.757 19.757">
  <path id="Caminho_1" data-name="Caminho 1" d="M6.5,2.255a7.725,7.725,0,1,1,1.02,11.811,1.477,1.477,0,0,1-.429.805l-4.4,4.4a1.62,1.62,0,0,1-2.309,0,1.62,1.62,0,0,1,0-2.309l4.4-4.4a1.689,1.689,0,0,1,.805-.429A7.817,7.817,0,0,1,6.5,2.255Zm1.4,9.556a5.77,5.77,0,1,0,0-8.16A5.768,5.768,0,0,0,7.9,11.811Z" transform="translate(0.1)" fill="rgba(255,255,255,0.59)"/>
</svg>
