<svg xmlns="http://www.w3.org/2000/svg" width="21.401" height="19.283" viewBox="0 0 21.401 19.283">
  <g id="Grupo_342" data-name="Grupo 342" transform="translate(0 0)">
    <path id="Caminho_1091" data-name="Caminho 1091" d="M12.048,25.216c-4.084,0-8.31,2.718-9.1,6.754-.239,1.226-.152,3.1-.605,4.06-.561,1.192-1.69.168-2.254,1.3A1.122,1.122,0,0,0,.2,38.5a8.7,8.7,0,0,0,4.257,3.035,2.25,2.25,0,1,0,4.386.773c.8.047,1.608.062,2.424.062.277,0,.548,0,.814-.012A2.162,2.162,0,0,0,14.5,44.488a2.249,2.249,0,0,0,1.913-3.036,9.091,9.091,0,0,0,2.38-1.685C24.476,34.317,20.122,25.216,12.048,25.216Zm-5.355,18.2a1.175,1.175,0,1,1,1.07-1.271A1.175,1.175,0,0,1,6.692,43.416Zm7.725,0a1.175,1.175,0,1,1,1.07-1.271A1.175,1.175,0,0,1,14.418,43.416Zm1.328-2.9A2.24,2.24,0,0,0,14.117,40a2.107,2.107,0,0,0-1.835,1.231c-.357.014-.7.017-1.015.017-.891,0-1.8-.012-2.693-.072a2.251,2.251,0,0,0-3.491-.6,7.763,7.763,0,0,1-3.988-2.749c3.171,0,2.545-3.544,2.956-5.645.68-3.482,4.432-5.846,8-5.846,5.053,0,9.549,4.511,7.81,9.8A7.792,7.792,0,0,1,15.745,40.514Z" transform="translate(0.027 -25.216)" fill="#fff"/>
    <path id="Caminho_1092" data-name="Caminho 1092" d="M193.312,162.153a1.076,1.076,0,1,0-1.077-1.076A1.076,1.076,0,0,0,193.312,162.153Z" transform="translate(-184.204 -154.37)" fill="#fff"/>
    <circle id="Elipse_26" data-name="Elipse 26" cx="1.076" cy="1.076" r="1.076" transform="translate(13.174 5.462)" fill="#fff"/>
    <path id="Caminho_1093" data-name="Caminho 1093" d="M195.558,239.026a2.766,2.766,0,0,1-2.749,1.838c-1.2.032-2.628-.765-2.765-1.96a.561.561,0,0,0-1.114.128,3.716,3.716,0,0,0,3.8,2.954,3.893,3.893,0,0,0,3.923-2.7A.561.561,0,0,0,195.558,239.026Z" transform="translate(-181.033 -229.508)" fill="#fff"/>
  </g>
</svg>
